<svg width="514" height="514" viewBox="0 0 514 514" fill="none" xmlns="http://www.w3.org/2000/svg">
<circle cx="257" cy="257" r="257" fill="#D9D9D9"/>
<path d="M147.575 24.4594C98.5845 47.5124 58.1263 85.449 31.9724 132.857C5.81854 180.264 -4.69475 234.721 1.93246 288.457C8.55967 342.193 31.9888 392.464 68.8772 432.097C105.766 471.729 154.229 498.699 207.352 509.159L257 257L147.575 24.4594Z" fill="#97BB31"/>
<path d="M514 257C514 213.711 503.065 171.124 482.211 133.189C461.356 95.255 431.257 63.2031 394.707 40.0077C358.157 16.8124 316.341 3.22526 273.137 0.50713C229.934 -2.211 186.744 6.02795 147.575 24.4595L257 257H514Z" fill="#FF69B4"/>
</svg>
